# xmcd CD database file
#
# Track frame offsets:
#	150
#	42196
#	66686
#	97366
#	116983
#	138207
#	177181
#	197260
#	229993
#	263151
#
# Disc length: 3808 seconds
#
# Revision: 0
# Processed by: cddbd v1.5.2PL0 Copyright (c) Steve Scherf et al.
# Submitted via: CDex 1.70beta2
#
DISCID=960ede0a
DTITLE=Various Artist - CUBAN Latin Jazz
DYEAR=2006
DGENRE=Jazz
TTITLE0=Cha cha cha Cortes-Jose luis Cortes
TTITLE1=Son a Emiliano-Gabriel Hernadez
TTITLE2=Arcoiris-Afrocuba
TTITLE3=Funk Blues-El Greco y Top Secret
TTITLE4=To remeber black Bird-Gabriel Hernadez
TTITLE5=Cuarto-Jose luis Cortez
TTITLE6=Longina-El Greco y Top Secret
TTITLE7=All Of Me-Jose luis Cortez
TTITLE8=Lamento Desertico-Afrocuba
TTITLE9=Hojarascas-El Greco y Top Secret
EXTD=YEAR: 2006
EXTT0=
EXTT1=
EXTT2=
EXTT3=
EXTT4=
EXTT5=
EXTT6=
EXTT7=
EXTT8=
EXTT9=
PLAYORDER=
